<svg width="44" height="44" viewBox="0 0 44 44" fill="none" xmlns="http://www.w3.org/2000/svg">
<path d="M6.875 11H12.375V7.5625C12.375 6.0457 13.6082 4.8125 15.125 4.8125H28.875C30.3918 4.8125 31.625 6.0457 31.625 7.5625V11H37.125C37.8855 11 38.5 11.6145 38.5 12.375V13.75C38.5 13.9391 38.3453 14.0938 38.1562 14.0938H35.5609L34.4996 36.5664C34.4309 38.0316 33.2191 39.1875 31.7539 39.1875H12.2461C10.7766 39.1875 9.56914 38.0359 9.50039 36.5664L8.43906 14.0938H5.84375C5.65469 14.0938 5.5 13.9391 5.5 13.75V12.375C5.5 11.6145 6.11445 11 6.875 11ZM15.4688 11H28.5312V7.90625H15.4688V11Z" fill="white"/>
</svg>
