<svg width="184" height="360" viewBox="0 0 184 360" fill="none" xmlns="http://www.w3.org/2000/svg">
<path d="M121.44 96.72V114.48H75.84V264H54V114.48H8.16V96.72H121.44Z" fill="white"/>
<path fill-rule="evenodd" clip-rule="evenodd" d="M183.621 149H156.44C148.822 144.55 139.959 142 130.5 142C102.057 142 79 165.057 79 193.5C79 221.943 102.057 245 130.5 245C139.226 245 147.445 242.83 154.647 239H183.621C170.78 254.285 151.525 264 130 264C91.3401 264 60 232.66 60 194C60 155.34 91.3401 124 130 124C151.525 124 170.78 133.715 183.621 149Z" fill="#A354FF"/>
</svg>
