<svg width="42" height="42" viewBox="0 0 42 42" fill="none" xmlns="http://www.w3.org/2000/svg">
<path fill-rule="evenodd" clip-rule="evenodd" d="M21 1.75C10.3687 1.75 1.75 10.3687 1.75 21C1.75 31.6312 10.3687 40.25 21 40.25C31.6312 40.25 40.25 31.6312 40.25 21C40.25 10.3687 31.6312 1.75 21 1.75ZM22.75 28C22.75 28.4641 22.5656 28.9092 22.2374 29.2374C21.9092 29.5656 21.4641 29.75 21 29.75C20.5359 29.75 20.0908 29.5656 19.7626 29.2374C19.4344 28.9092 19.25 28.4641 19.25 28V22.75H14C13.5359 22.75 13.0908 22.5656 12.7626 22.2374C12.4344 21.9092 12.25 21.4641 12.25 21C12.25 20.5359 12.4344 20.0908 12.7626 19.7626C13.0908 19.4344 13.5359 19.25 14 19.25H19.25V14C19.25 13.5359 19.4344 13.0908 19.7626 12.7626C20.0908 12.4344 20.5359 12.25 21 12.25C21.4641 12.25 21.9092 12.4344 22.2374 12.7626C22.5656 13.0908 22.75 13.5359 22.75 14V19.25H28C28.4641 19.25 28.9092 19.4344 29.2374 19.7626C29.5656 20.0908 29.75 20.5359 29.75 21C29.75 21.4641 29.5656 21.9092 29.2374 22.2374C28.9092 22.5656 28.4641 22.75 28 22.75H22.75V28Z" fill="white"/>
</svg>
